<svg width="443" height="358" viewBox="0 0 443 358" fill="none" xmlns="http://www.w3.org/2000/svg">
<path opacity="0.1" d="M53.2904 41.7354C57.3276 17.6465 78.1778 0 102.603 0H392.285C419.899 0 442.285 22.3858 442.285 50V308C442.285 335.614 419.899 358 392.285 358H59.3624C28.4471 358 4.94011 330.225 10.0502 299.735L53.2904 41.7354Z" fill="#68C9BA"/>
<path d="M410.011 94.0297C435.736 123.208 405.361 151.381 351.9 152.141C245.614 145.137 221.629 51.0076 229.662 29.903C237.694 8.79835 261.613 8.2223 297.052 51.2153C332.491 94.2083 377.856 57.5574 410.011 94.0297Z" stroke="white" stroke-width="1.5"/>
<path d="M321.392 65.1107C319.447 70.2535 310.814 71.754 302.111 68.4621C293.408 65.1702 287.93 58.3326 289.875 53.1898C291.82 48.047 300.452 46.5465 309.155 49.8384C317.858 53.1302 323.337 59.9679 321.392 65.1107Z" stroke="white" stroke-width="1.5"/>
</svg>
