<svg width="443" height="358" viewBox="0 0 443 358" fill="none" xmlns="http://www.w3.org/2000/svg">
<path opacity="0.1" d="M53.2894 41.7354C57.3267 17.6465 78.1768 0 102.602 0H392.284C419.898 0 442.284 22.3858 442.284 50V308C442.284 335.614 419.898 358 392.284 358H59.3614C28.4461 358 4.93913 330.225 10.0492 299.735L53.2894 41.7354Z" fill="#2D9CDB"/>
<ellipse cx="382.674" cy="306.031" rx="30.9248" ry="18.2737" transform="rotate(20.7184 382.674 306.031)" stroke="white" stroke-width="1.5"/>
<path d="M108.726 247.711C48.1914 259.917 33.5671 195.793 74.9576 121.69C168.954 -18.8782 317.406 22.864 340.045 50.6597C362.685 78.4555 344.491 111.797 257.252 126.393C170.013 140.99 184.393 232.452 108.726 247.711Z" stroke="white" stroke-width="1.5"/>
</svg>
